<?xml version="1.0" encoding="utf-8"?>
<!-- Generator: Adobe Illustrator 21.1.0, SVG Export Plug-In . SVG Version: 6.00 Build 0)  -->
<svg version="1.1" id="Capa_1" xmlns="http://www.w3.org/2000/svg" xmlns:xlink="http://www.w3.org/1999/xlink" x="0px" y="0px"
	 viewBox="0 0 126.8 402" style="enable-background:new 0 0 126.8 402;" xml:space="preserve">
<g>
	<g>
		<path d="M99.9,301.5H26.8c-4.9,0-9.2,1.8-12.9,5.4c-3.6,3.6-5.4,7.9-5.4,12.8v64c0,4.9,1.8,9.2,5.4,12.9c3.6,3.6,7.9,5.4,12.9,5.4
			h73.1c4.9,0,9.2-1.8,12.8-5.4c3.6-3.6,5.4-7.9,5.4-12.9v-64c0-4.9-1.8-9.2-5.4-12.8C109.2,303.3,104.9,301.5,99.9,301.5z"/>
		<path d="M121.8,5.4C118.3,1.8,114,0,109.1,0H17.7C12.8,0,8.5,1.8,5,5.4C1.5,9-0.2,13.3,0,18.3l8,219.3c0.2,4.9,2.1,9.2,5.9,12.8
			c3.7,3.6,8,5.4,13,5.4h73.1c4.9,0,9.3-1.8,13-5.4c3.7-3.6,5.7-7.9,5.9-12.8l8-219.3C127,13.3,125.3,9,121.8,5.4z"/>
	</g>
</g>
</svg>
