<?xml version="1.0" encoding="iso-8859-1"?>
<!-- Generator: Adobe Illustrator 19.0.0, SVG Export Plug-In . SVG Version: 6.00 Build 0)  -->
<svg version="1.1" id="Capa_1" xmlns="http://www.w3.org/2000/svg" xmlns:xlink="http://www.w3.org/1999/xlink" x="0px" y="0px"
	 viewBox="0 0 512 512" style="enable-background:new 0 0 512 512;" xml:space="preserve">
<g>
	<g>
		<rect x="160" y="416.084" width="32" height="16"/>
	</g>
</g>
<g>
	<g>
		<rect x="208" y="416.084" width="16" height="16"/>
	</g>
</g>
<g>
	<g>
		<rect x="176" y="128.084" width="16" height="16"/>
	</g>
</g>
<g>
	<g>
		<rect x="328" y="128.084" width="16" height="16"/>
	</g>
</g>
<g>
	<g>
		<path d="M504,176.084h-24c-3.912,0-7.248,2.832-7.888,6.68l-6.888,41.32H448v-24c0-1.24-0.288-2.472-0.84-3.576l-16-32
			c-1.36-2.712-4.128-4.424-7.16-4.424h-10.456l-22.056-58.808c-1.168-3.12-4.152-5.192-7.488-5.192h-23.832v-32
			c0-8.912-7.248-16.168-16.168-16.168H168c-8.912,0-16.168,7.248-16.168,16.168v32H136c-3.336,0-6.32,2.072-7.496,5.192
			l-22.048,58.808H96c-2.52,0-4.888,1.184-6.4,3.2l-24,32c-1.04,1.384-1.6,3.064-1.6,4.8v40H48v-80H32v88H16
			c-8.824,0-16,7.176-16,16v32c0,8.824,7.176,16,16,16h16v88h16v-80h16v40c0,2.432,1.104,4.728,3,6.248l37,29.592v28.16
			c0,2.672,1.336,5.168,3.56,6.656l48,32c1.312,0.872,2.864,1.344,4.44,1.344h88h32h48h32h48h24c8.824,0,16-7.176,16-16v-56v-40
			h17.224l6.88,41.32c0.648,3.848,3.984,6.68,7.896,6.68h24c4.424,0,8-3.584,8-8v-208C512,179.668,508.424,176.084,504,176.084z
			 M32,296.084H16v-32h16V296.084z M64,304.084H48v-48h16V304.084z M199.832,64.22v15.864h16.328v-15.88l31.672-0.032v15.912h16.328
			V64.156l31.672-0.032v15.96h16.328V64.116l31.672-0.032v31.832H168.136L168,64.252L199.832,64.22z M240,448.084h-77.576
			L120,419.804v-19.72h120V448.084z M272,448.084h-16v-48h16V448.084z M320,448.084h-32v-48h32V448.084z M352,448.084h-16v-48h16
			V448.084z M400,448.084h-32v-48h32V448.084z M416,448.084v-48h16l0.008,48H416z M496,384.084h-9.224l-6.88-41.32
			c-0.648-3.848-3.984-6.68-7.896-6.68h-24v-8h-16v56h-24h-48h-32h-48h-32H114.808L80,356.244v-44.16v-64v-45.336l20-26.664h164v-16
			H123.544l18-48h17.648c0.28,0.032,0.528,0.168,0.816,0.168h192c0.288,0,0.536-0.136,0.816-0.168h25.64l18,48H368v16h51.056
			L432,201.972v46.112h16v-8h24c3.912,0,7.248-2.832,7.888-6.68l6.888-41.32H496V384.084z"/>
	</g>
</g>
<g>
	<g>
		<rect x="440" y="264.084" width="32" height="16"/>
	</g>
</g>
<g>
	<g>
		<rect x="440" y="296.084" width="32" height="16"/>
	</g>
</g>
<g>
	<g>
		<path d="M344,224.084c-18.904,0-35.624,9.44-45.768,23.832h-84.256c-10.168-14.488-26.968-24-45.976-24
			c-23.28,0-46.856,19.008-55.352,36.616c-1.216,2.528-1.056,5.504,0.44,7.888c1.496,2.384,4.104,3.824,6.912,3.824h39.832v15.672
			H120c-2.808,0-5.424,1.44-6.912,3.824c-1.496,2.376-1.664,5.36-0.44,7.888c8.496,17.608,32.08,36.616,55.352,36.616
			c19.008,0,35.808-9.512,45.976-24h84.264c10.136,14.4,26.856,23.84,45.76,23.84c30.872,0,56-25.12,56-56
			S374.872,224.084,344,224.084z M168,319.916c-11.28,0-23.56-7.024-32.08-15.672H168c4.504,0,8.168-3.656,8.168-8.168v-32
			c0-4.504-3.656-8.168-8.168-8.168h-32.08c8.52-8.648,20.8-15.672,32.08-15.672c21.968,0,39.832,17.872,39.832,39.832
			C207.832,302.028,189.968,319.916,168,319.916z M290.32,295.916h-68.464c1.48-5.032,2.312-10.336,2.312-15.832
			c0-5.496-0.832-10.808-2.312-15.832h68.464c-1.488,5.024-2.32,10.328-2.32,15.832C288,285.588,288.832,290.892,290.32,295.916z
			 M344,320.084c-22.056,0-40-17.944-40-40c0-22.056,17.944-40,40-40c22.056,0,40,17.944,40,40
			C384,302.14,366.056,320.084,344,320.084z"/>
	</g>
</g>
<g>
	<g>
		<path d="M344,255.916c-13.328,0-24.168,10.84-24.168,24.168s10.832,24.168,24.168,24.168s24.168-10.84,24.168-24.168
			S357.328,255.916,344,255.916z M344,287.916c-4.32,0-7.832-3.512-7.832-7.832s3.512-7.832,7.832-7.832s7.832,3.512,7.832,7.832
			S348.32,287.916,344,287.916z"/>
	</g>
</g>
<g>
</g>
<g>
</g>
<g>
</g>
<g>
</g>
<g>
</g>
<g>
</g>
<g>
</g>
<g>
</g>
<g>
</g>
<g>
</g>
<g>
</g>
<g>
</g>
<g>
</g>
<g>
</g>
<g>
</g>
</svg>
